<?xml version="1.0" encoding="UTF-8" ?>
<!DOCTYPE svg PUBLIC "-//W3C//DTD SVG 1.1//EN" "http://www.w3.org/Graphics/SVG/1.1/DTD/svg11.dtd">
<svg width="1000pt" height="1000pt" viewBox="0 0 1000 1000" version="1.1" xmlns="http://www.w3.org/2000/svg">
<g id="#ffffffff">
</g>
<g id="#e2e2e2ff">
<path fill="#e2e2e2" opacity="1.00" d=" M 725.06 364.99 C 727.68 365.02 730.30 365.02 732.93 364.98 C 733.36 393.65 732.94 422.33 733.14 451.00 C 733.17 454.67 733.08 458.35 732.96 462.03 C 730.31 462.02 727.68 462.01 725.05 462.02 C 724.66 433.35 725.05 404.67 724.86 376.00 C 724.81 372.33 724.91 368.66 725.06 364.99 Z" />
</g>
<g id="#f0f0f0ff">
</g>
<g id="#7cb1feff">
<path fill="#7cb1fe" opacity="1.00" d=" M 435.35 221.70 C 439.34 218.93 443.31 214.79 448.57 215.30 C 449.68 216.53 449.32 218.30 449.50 219.81 C 453.90 217.66 458.46 214.95 463.55 215.31 C 464.11 216.45 464.48 217.68 464.88 218.90 C 467.80 217.93 470.81 216.96 473.94 217.15 C 474.86 219.37 472.74 220.98 471.44 222.44 C 467.36 226.25 462.98 229.73 458.63 233.21 C 455.41 235.70 452.33 238.36 449.24 240.99 C 444.16 244.84 439.32 248.97 434.84 253.50 C 427.88 256.88 420.26 258.80 412.51 258.77 C 412.21 257.44 411.94 256.10 411.69 254.77 C 413.36 247.66 415.81 240.73 419.19 234.24 C 422.64 227.93 427.17 221.29 434.38 219.03 C 434.62 219.69 435.11 221.03 435.35 221.70 Z" />
<path fill="#7cb1fe" opacity="1.00" d=" M 338.87 226.82 C 341.64 227.62 344.39 228.60 346.85 230.14 C 357.50 236.66 367.65 243.98 378.55 250.09 C 384.08 253.58 389.79 257.07 396.19 258.71 C 399.34 259.59 402.64 260.05 405.61 261.48 C 408.60 262.97 409.82 267.16 408.06 270.02 C 406.55 272.67 403.56 273.96 400.74 274.70 C 395.21 276.06 389.47 276.10 383.81 276.06 C 372.90 275.26 360.29 274.30 352.65 265.39 C 353.18 264.89 354.24 263.88 354.76 263.38 C 350.84 260.10 344.61 257.46 344.86 251.46 C 346.20 251.18 347.54 250.90 348.89 250.62 C 345.29 246.74 340.72 243.10 339.93 237.52 C 341.20 237.24 342.48 236.96 343.76 236.69 C 341.26 233.91 338.85 230.77 338.87 226.82 Z" />
</g>
<g id="#0062d1ff">
<path fill="#0062d1" opacity="1.00" d=" M 251.76 218.60 C 256.22 216.22 261.40 216.02 266.34 216.48 C 261.68 218.15 256.68 218.58 251.76 218.60 Z" />
<path fill="#0062d1" opacity="1.00" d=" M 299.76 217.37 C 304.61 217.94 310.19 217.52 314.24 220.64 C 309.42 219.92 303.84 220.41 299.76 217.37 Z" />
<path fill="#0062d1" opacity="1.00" d=" M 231.64 230.78 C 233.39 226.21 237.77 223.42 242.25 221.96 C 238.96 225.19 235.30 228.00 231.64 230.78 Z" />
<path fill="#0062d1" opacity="1.00" d=" M 226.48 239.61 C 228.84 243.68 227.12 248.86 227.47 253.37 C 224.60 249.47 226.28 244.08 226.48 239.61 Z" />
<path fill="#0062d1" opacity="1.00" d=" M 229.44 263.47 C 232.45 267.14 233.86 271.79 234.83 276.36 C 231.59 272.82 230.45 268.02 229.44 263.47 Z" />
<path fill="#0062d1" opacity="1.00" d=" M 239.01 285.78 C 242.06 289.33 243.99 293.70 244.92 298.27 C 241.59 294.90 240.23 290.22 239.01 285.78 Z" />
<path fill="#0062d1" opacity="1.00" d=" M 248.20 307.72 C 251.65 311.28 252.25 316.51 252.89 321.20 C 250.44 317.07 248.98 312.44 248.20 307.72 Z" />
<path fill="#0062d1" opacity="1.00" d=" M 255.31 330.71 C 257.23 335.29 257.39 340.37 256.79 345.25 C 255.03 340.61 255.21 335.58 255.31 330.71 Z" />
<path fill="#0062d1" opacity="1.00" d=" M 113.19 332.78 C 115.54 334.73 116.86 337.52 117.67 340.41 C 115.12 338.60 113.77 335.77 113.19 332.78 Z" />
<path fill="#0062d1" opacity="1.00" d=" M 122.83 348.08 C 126.79 351.14 130.39 354.72 133.15 358.92 C 128.69 356.45 125.03 352.68 122.83 348.08 Z" />
<path fill="#0062d1" opacity="1.00" d=" M 250.18 368.16 C 251.78 363.61 252.64 358.58 255.75 354.76 C 255.27 359.64 253.69 364.58 250.18 368.16 Z" />
<path fill="#0062d1" opacity="1.00" d=" M 507.03 368.07 C 512.40 364.68 518.58 363.09 524.57 361.21 C 525.58 367.30 528.19 372.94 530.24 378.72 C 534.13 389.02 537.98 399.36 542.60 409.37 C 544.20 412.49 545.75 416.32 549.43 417.44 C 554.42 419.16 559.63 420.17 564.79 421.26 C 568.55 422.13 572.30 423.05 576.08 423.85 C 584.18 425.53 592.22 427.48 600.38 428.87 C 599.77 433.50 598.75 438.06 597.98 442.67 C 589.91 444.83 581.68 449.02 577.42 456.52 L 576.68 456.31 C 573.09 455.25 569.52 454.15 565.96 452.99 C 555.73 449.40 545.23 445.94 536.16 439.85 C 528.84 435.00 525.48 426.51 522.29 418.72 C 517.56 406.51 514.01 393.89 510.79 381.21 C 509.74 376.77 508.63 372.34 507.03 368.07 Z" />
<path fill="#0062d1" opacity="1.00" d=" M 140.66 364.29 C 145.11 366.32 149.28 368.96 153.04 372.09 C 148.25 370.82 143.60 368.38 140.66 364.29 Z" />
<path fill="#0062d1" opacity="1.00" d=" M 161.73 376.33 C 166.45 377.46 171.07 379.17 175.16 381.83 C 170.39 381.02 165.25 379.92 161.73 376.33 Z" />
<path fill="#0062d1" opacity="1.00" d=" M 231.94 383.08 C 235.63 380.16 239.66 377.63 244.02 375.85 C 240.98 379.59 236.69 382.20 231.94 383.08 Z" />
<path fill="#0062d1" opacity="1.00" d=" M 184.63 384.27 C 189.31 384.41 194.03 385.04 198.36 386.90 C 193.77 386.69 188.46 387.33 184.63 384.27 Z" />
<path fill="#0062d1" opacity="1.00" d=" M 208.45 387.60 C 212.70 385.40 217.77 386.19 222.40 385.63 C 218.44 388.63 213.08 387.75 208.45 387.60 Z" />
<path fill="#0062d1" opacity="1.00" d=" M 643.61 426.95 C 648.80 426.29 654.03 426.89 659.09 428.13 C 659.03 428.81 658.90 430.16 658.83 430.83 C 657.79 441.03 655.74 451.21 656.29 461.51 C 662.17 458.55 665.96 453.04 670.89 448.88 C 674.43 445.75 678.32 443.05 682.27 440.47 C 690.94 442.89 692.24 453.57 690.72 461.09 C 690.60 461.56 690.36 462.51 690.23 462.98 C 688.34 469.28 684.95 474.96 681.86 480.72 C 673.86 489.94 664.65 498.90 652.81 502.83 C 648.42 504.34 642.63 504.58 639.55 500.45 C 635.22 494.63 635.95 486.89 635.79 480.04 C 635.49 470.27 638.26 460.75 638.13 450.99 C 637.40 451.08 635.95 451.26 635.23 451.35 C 632.88 460.89 632.97 470.82 630.53 480.33 C 629.10 470.77 631.71 461.21 630.54 451.65 C 628.49 453.63 626.45 455.62 624.40 457.59 C 622.90 453.53 622.76 449.19 623.10 444.93 C 624.44 446.58 625.77 448.24 627.11 449.91 C 628.96 446.58 630.69 443.19 632.43 439.80 C 638.40 438.80 643.89 433.19 643.61 426.95 Z" />
<path fill="#0062d1" opacity="1.00" d=" M 834.26 665.24 C 848.43 658.47 866.69 659.11 879.09 669.34 C 880.29 670.54 881.40 671.81 882.54 673.09 C 877.39 681.81 869.92 689.58 860.42 693.43 C 854.49 695.60 847.10 696.21 841.76 692.28 C 838.04 689.59 837.13 684.78 836.59 680.53 C 836.43 679.24 836.33 677.95 836.22 676.68 C 835.31 676.20 834.41 675.75 833.53 675.28 C 831.61 674.02 828.27 673.07 828.88 670.14 C 829.65 667.68 832.14 666.39 834.26 665.24 Z" />
<path fill="#0062d1" opacity="1.00" d=" M 762.48 703.49 C 767.14 695.51 774.98 687.64 784.95 688.28 C 791.11 688.26 795.58 692.92 799.59 696.98 C 800.69 698.09 801.82 699.20 802.91 700.35 C 805.57 703.21 808.43 706.68 807.84 710.88 C 807.18 716.96 801.66 720.75 797.15 724.12 C 786.75 731.17 775.63 737.19 764.10 742.18 C 761.20 738.41 758.44 734.35 757.45 729.62 C 755.23 720.66 757.88 711.25 762.48 703.49 Z" />
</g>
<g id="#237ddeff">
<path fill="#237dde" opacity="1.00" d=" M 275.64 216.59 C 280.15 215.17 285.32 215.17 289.68 217.09 C 285.01 217.71 280.26 217.55 275.64 216.59 Z" />
</g>
<g id="#0461cbff">
<path fill="#0461cb" opacity="1.00" d=" M 323.69 222.28 C 326.50 222.68 329.44 223.39 331.31 225.72 C 328.49 225.31 325.60 224.54 323.69 222.28 Z" />
<path fill="#0461cb" opacity="1.00" d=" M 651.18 348.56 C 654.08 349.39 656.74 350.88 659.08 352.78 C 664.23 362.60 666.16 373.91 664.23 384.86 C 661.60 384.52 658.96 384.33 656.31 384.34 L 655.58 384.39 C 656.42 384.20 658.10 383.83 658.94 383.64 C 659.66 376.09 659.87 368.36 658.07 360.94 C 656.92 356.26 653.90 352.41 651.18 348.56 Z" />
</g>
<g id="#95befdff">
<path fill="#95befd" opacity="1.00" d=" M 362.90 235.04 C 369.45 231.22 377.43 231.12 384.58 233.10 C 386.98 240.92 389.90 249.20 396.37 254.62 C 399.04 256.95 402.55 257.96 406.04 258.12 C 407.40 258.23 408.77 258.33 410.15 258.44 C 410.67 257.22 411.20 256.00 411.69 254.77 C 411.94 256.10 412.21 257.44 412.51 258.77 C 420.26 258.80 427.88 256.88 434.84 253.50 C 439.52 252.96 444.71 251.79 449.15 253.79 C 452.04 257.63 453.75 262.45 457.89 265.27 C 455.81 265.30 453.72 265.33 451.65 265.36 C 451.40 267.23 451.16 269.10 450.94 270.97 C 449.97 270.16 449.01 269.35 448.03 268.57 C 446.77 268.05 445.40 267.45 444.01 267.87 C 438.38 269.12 433.69 272.73 429.56 276.59 C 424.82 281.00 419.59 284.98 413.68 287.68 C 411.17 288.30 408.60 288.69 406.03 288.91 C 396.92 289.64 387.61 284.45 383.81 276.06 C 389.47 276.10 395.21 276.06 400.74 274.70 C 403.56 273.96 406.55 272.67 408.06 270.02 C 409.82 267.16 408.60 262.97 405.61 261.48 C 402.64 260.05 399.34 259.59 396.19 258.71 C 389.79 257.07 384.08 253.58 378.55 250.09 C 374.62 243.85 368.76 239.35 362.90 235.04 M 444.55 259.11 C 443.59 260.28 445.63 261.66 446.45 260.46 C 447.40 259.28 445.36 257.88 444.55 259.11 Z" />
</g>
<g id="#e1e1e1ff">
</g>
<g id="#e2e1e2ff">
</g>
<g id="#f5f5f5ff">
<path fill="#f5f5f5" opacity="1.00" d=" M 618.34 397.00 C 621.83 396.29 625.37 395.79 628.91 395.30 C 628.63 396.32 628.36 397.34 628.11 398.37 C 624.81 398.40 621.35 398.59 618.34 397.00 Z" />
</g>
<g id="#11232bff">
<path fill="#11232b" opacity="1.00" d=" M 444.55 259.11 C 445.36 257.88 447.40 259.28 446.45 260.46 C 445.63 261.66 443.59 260.28 444.55 259.11 Z" />
<path fill="#11232b" opacity="1.00" d=" M 616.97 374.55 C 617.91 375.80 620.15 376.75 619.56 378.62 C 618.79 379.64 617.83 380.49 616.93 381.40 C 616.29 379.14 616.39 376.81 616.97 374.55 Z" />
<path fill="#11232b" opacity="1.00" d=" M 633.62 378.61 C 635.61 380.11 636.50 382.25 636.14 384.74 C 635.36 384.74 633.81 384.75 633.04 384.75 C 633.23 382.70 633.41 380.65 633.62 378.61 Z" />
<path fill="#11232b" opacity="1.00" d=" M 622.27 535.29 C 633.12 534.40 644.01 534.17 654.88 533.75 C 655.01 537.12 655.17 540.50 655.27 543.88 C 650.65 544.21 646.04 544.57 641.47 545.29 C 641.17 541.85 640.93 538.41 640.70 534.97 C 635.85 535.05 631.00 535.37 626.18 535.88 C 626.34 539.41 626.51 542.95 626.62 546.49 C 623.87 546.37 621.13 546.24 618.39 546.10 C 618.19 542.65 617.94 539.21 617.69 535.77 C 619.21 535.59 620.73 535.43 622.27 535.29 Z" />
</g>
<g id="#bfd8ffff">
<path fill="#bfd8ff" opacity="1.00" d=" M 451.65 265.36 C 453.72 265.33 455.81 265.30 457.89 265.27 C 461.11 267.80 464.67 269.86 468.30 271.74 C 477.70 276.61 486.92 281.83 496.35 286.66 C 499.46 288.25 502.34 290.24 505.18 292.27 C 501.00 302.50 494.72 311.68 490.15 321.72 C 488.63 323.09 487.02 324.33 485.47 325.65 C 469.67 316.57 453.39 308.32 437.40 299.58 C 436.14 298.80 434.91 297.92 434.02 296.73 C 433.84 294.10 435.29 291.75 436.42 289.49 C 440.35 282.54 443.89 275.39 448.03 268.57 C 449.01 269.35 449.97 270.16 450.94 270.97 C 451.16 269.10 451.40 267.23 451.65 265.36 M 454.83 279.93 C 456.28 285.42 459.09 290.38 461.40 295.53 C 462.51 297.65 463.55 300.25 465.95 301.20 C 468.87 302.01 471.94 301.34 474.89 300.97 C 480.01 300.03 485.25 299.67 490.27 298.18 C 483.72 297.85 477.26 299.14 470.74 299.50 C 468.54 299.73 466.20 299.01 464.97 297.06 C 461.16 291.61 458.90 285.23 454.83 279.93 Z" />
</g>
<g id="#9fb8ddff">
<path fill="#9fb8dd" opacity="1.00" d=" M 454.83 279.93 C 458.90 285.23 461.16 291.61 464.97 297.06 C 466.20 299.01 468.54 299.73 470.74 299.50 C 477.26 299.14 483.72 297.85 490.27 298.18 C 485.25 299.67 480.01 300.03 474.89 300.97 C 471.94 301.34 468.87 302.01 465.95 301.20 C 463.55 300.25 462.51 297.65 461.40 295.53 C 459.09 290.38 456.28 285.42 454.83 279.93 Z" />
</g>
<g id="#007dfeff">
<path fill="#007dfe" opacity="1.00" d=" M 685.96 322.07 C 686.57 317.27 691.38 314.20 695.99 314.33 C 705.71 314.14 715.43 314.48 725.16 314.24 C 727.48 314.23 729.81 314.23 732.15 314.25 C 742.12 314.37 752.08 314.34 762.05 314.24 C 765.75 314.25 770.00 314.35 772.72 317.27 C 775.93 320.25 775.72 324.95 775.77 328.96 C 775.64 336.32 775.70 343.69 775.77 351.06 C 775.75 354.74 775.58 358.98 772.62 361.62 C 769.58 364.66 764.96 364.44 761.00 364.51 C 748.99 364.31 736.97 364.55 724.96 364.33 C 721.69 364.33 718.11 364.21 715.41 366.36 C 707.07 372.45 699.56 379.66 690.78 385.13 C 694.91 377.82 700.67 371.63 705.05 364.48 C 699.37 364.13 692.28 365.80 687.98 361.05 C 684.45 356.52 685.78 350.33 685.55 345.00 C 685.87 337.36 684.99 329.67 685.96 322.07 M 706.42 336.45 C 702.46 337.77 705.06 343.88 708.84 342.15 C 712.67 340.87 709.92 334.91 706.42 336.45 M 720.28 336.93 C 720.11 338.33 719.95 339.74 719.78 341.14 C 721.33 341.58 723.05 343.02 724.63 341.83 C 726.40 340.98 726.17 338.22 724.91 337.02 C 723.59 335.84 721.79 336.82 720.28 336.93 M 735.32 339.12 C 734.62 342.38 738.92 342.35 741.08 342.08 C 741.01 340.49 741.23 338.85 740.73 337.32 C 738.91 335.52 735.28 336.24 735.32 339.12 M 752.40 336.31 C 750.43 337.62 750.91 340.05 750.91 342.06 C 752.79 341.96 755.65 342.83 756.60 340.57 C 757.49 338.03 754.90 335.60 752.40 336.31 Z" />
</g>
<g id="#fd8a7bff">
<path fill="#fd8a7b" opacity="1.00" d=" M 490.15 321.72 C 499.63 323.90 508.17 329.25 515.43 335.58 C 518.70 338.01 516.88 342.08 516.53 345.37 C 515.89 348.80 517.50 352.05 518.55 355.22 C 515.10 356.56 511.64 357.94 508.00 358.71 C 507.33 355.12 507.53 350.19 503.57 348.50 C 496.52 344.91 488.47 342.91 482.43 337.58 C 478.51 333.96 482.17 328.31 485.47 325.65 C 487.02 324.33 488.63 323.09 490.15 321.72 Z" />
</g>
<g id="#f3fcf8ff">
<path fill="#f3fcf8" opacity="1.00" d=" M 706.42 336.45 C 709.92 334.91 712.67 340.87 708.84 342.15 C 705.06 343.88 702.46 337.77 706.42 336.45 Z" />
</g>
<g id="#f4faf9ff">
<path fill="#f4faf9" opacity="1.00" d=" M 720.28 336.93 C 721.79 336.82 723.59 335.84 724.91 337.02 C 726.17 338.22 726.40 340.98 724.63 341.83 C 723.05 343.02 721.33 341.58 719.78 341.14 C 719.95 339.74 720.11 338.33 720.28 336.93 Z" />
</g>
<g id="#f6fbf9ff">
<path fill="#f6fbf9" opacity="1.00" d=" M 735.32 339.12 C 735.28 336.24 738.91 335.52 740.73 337.32 C 741.23 338.85 741.01 340.49 741.08 342.08 C 738.92 342.35 734.62 342.38 735.32 339.12 Z" />
</g>
<g id="#f5fafbff">
<path fill="#f5fafb" opacity="1.00" d=" M 752.40 336.31 C 754.90 335.60 757.49 338.03 756.60 340.57 C 755.65 342.83 752.79 341.96 750.91 342.06 C 750.91 340.05 750.43 337.62 752.40 336.31 Z" />
</g>
<g id="#e7e7e7ff">
</g>
<g id="#1b2e35ff">
<path fill="#1b2e35" opacity="1.00" d=" M 606.46 359.41 C 609.34 351.89 617.28 347.09 625.10 346.45 C 633.83 345.93 642.77 345.80 651.18 348.56 C 653.90 352.41 656.92 356.26 658.07 360.94 C 659.87 368.36 659.66 376.09 658.94 383.64 C 658.10 383.83 656.42 384.20 655.58 384.39 C 653.07 384.88 650.75 386.03 648.62 387.40 C 646.61 383.35 644.56 379.32 642.72 375.19 C 641.85 375.70 640.99 376.22 640.14 376.74 C 639.53 373.92 637.36 372.01 635.13 370.39 C 636.40 370.17 637.67 369.94 638.94 369.73 C 639.24 366.49 639.54 363.25 639.87 360.01 C 635.77 359.85 631.57 359.50 627.58 360.66 C 624.44 361.55 621.73 363.41 619.06 365.21 C 621.10 365.93 623.15 366.65 625.21 367.36 C 622.32 367.58 619.30 367.37 616.57 368.45 C 612.85 373.19 611.67 379.32 610.02 384.98 C 608.24 392.88 606.64 401.87 610.68 409.34 C 614.35 415.79 622.36 417.38 629.20 417.43 C 629.38 419.22 629.56 421.03 629.66 422.84 C 629.23 422.99 628.38 423.27 627.95 423.42 C 619.20 421.47 610.10 419.50 602.56 414.41 C 599.04 412.25 597.97 407.87 598.65 404.01 C 600.10 393.88 605.83 385.16 610.56 376.32 C 607.52 371.33 604.29 365.38 606.46 359.41 M 640.28 364.48 C 640.40 367.13 638.56 371.62 642.18 372.54 C 641.93 369.77 641.30 367.06 640.28 364.48 Z" />
<path fill="#1b2e35" opacity="1.00" d=" M 659.08 352.78 C 665.46 357.11 671.45 362.75 673.59 370.42 C 676.25 378.12 673.35 386.12 673.55 393.97 C 673.55 397.55 673.54 401.14 673.53 404.73 C 672.88 409.28 672.19 413.92 670.19 418.10 C 668.71 421.26 665.73 423.25 663.01 425.25 C 661.73 423.82 660.47 422.41 659.20 420.99 C 660.12 408.99 668.04 399.26 670.98 387.82 C 668.76 386.76 666.54 385.70 664.23 384.86 C 666.16 373.91 664.23 362.60 659.08 352.78 Z" />
<path fill="#1b2e35" opacity="1.00" d=" M 400.79 462.81 C 402.73 454.77 403.91 446.52 406.94 438.78 C 407.14 451.65 404.80 464.35 403.97 477.17 C 403.32 485.45 402.23 493.70 401.94 502.02 C 412.86 503.48 423.70 506.01 434.77 505.88 C 437.04 506.67 439.26 507.59 441.50 508.47 C 441.74 510.05 441.98 511.63 442.23 513.22 C 413.75 513.26 385.26 513.48 356.79 513.13 C 356.83 511.43 356.88 509.75 356.94 508.07 C 358.52 507.52 360.10 506.99 361.69 506.44 C 365.97 504.92 370.25 503.41 374.48 501.75 C 374.54 505.11 374.86 508.46 375.13 511.81 C 379.60 512.01 384.20 512.80 388.61 511.67 C 390.48 509.77 390.74 506.88 391.45 504.42 C 394.34 490.50 397.61 476.67 400.79 462.81 Z" />
<path fill="#1b2e35" opacity="1.00" d=" M 690.23 462.98 C 709.15 462.39 728.09 462.86 747.01 462.72 C 758.44 462.31 769.71 469.14 774.42 479.59 C 777.55 485.92 777.19 493.14 777.17 500.00 C 777.07 505.67 777.40 511.36 776.87 517.01 C 776.04 525.47 771.05 533.32 763.95 537.94 C 757.42 542.48 749.23 542.94 741.55 542.99 L 740.69 542.96 C 731.12 542.68 721.54 542.96 711.97 542.82 C 705.32 542.62 698.66 542.88 692.01 542.67 C 687.72 542.59 683.70 540.95 679.62 539.83 C 673.52 543.85 665.98 542.89 659.06 543.29 C 658.64 540.05 658.18 536.82 657.69 533.60 C 664.05 533.17 670.42 532.70 676.80 532.57 C 677.84 525.42 678.54 518.23 679.21 511.03 C 680.11 500.93 681.62 490.87 681.86 480.72 C 684.95 474.96 688.34 469.28 690.23 462.98 Z" />
<path fill="#1b2e35" opacity="1.00" d=" M 583.48 484.35 C 584.37 482.02 586.16 480.30 588.25 479.03 C 588.82 486.64 585.30 493.70 583.84 501.02 C 583.07 503.86 582.22 506.68 581.39 509.51 C 579.99 509.52 578.60 509.53 577.21 509.55 C 577.20 505.45 577.67 501.32 579.30 497.52 C 580.96 493.22 582.60 488.89 583.48 484.35 Z" />
<path fill="#1b2e35" opacity="1.00" d=" M 719.12 808.65 C 723.81 804.39 730.30 803.64 736.33 804.69 C 739.88 807.54 742.96 810.91 745.28 814.85 C 745.14 818.27 745.33 821.83 744.07 825.09 C 741.86 830.65 735.97 834.38 730.02 834.20 C 722.67 834.29 716.01 828.13 715.33 820.86 C 714.76 816.43 716.73 812.23 719.12 808.65 Z" />
</g>
<g id="#047cfaff">
<path fill="#047cfa" opacity="1.00" d=" M 518.55 355.22 C 519.67 355.06 520.79 355.00 521.93 355.04 C 523.96 356.36 524.00 359.08 524.57 361.21 C 518.58 363.09 512.40 364.68 507.03 368.07 C 505.52 364.93 505.49 361.36 508.00 358.71 C 511.64 357.94 515.10 356.56 518.55 355.22 Z" />
<path fill="#047cfa" opacity="1.00" d=" M 569.08 772.75 C 576.31 769.92 584.20 769.88 591.82 769.07 C 592.61 769.02 594.19 768.92 594.99 768.87 C 594.99 772.44 594.96 776.02 594.91 779.60 C 593.56 779.73 592.21 779.88 590.87 780.03 C 585.73 780.55 580.58 781.10 575.59 782.47 C 572.23 780.20 570.05 776.64 569.08 772.75 Z" />
</g>
<g id="#fc8a7bff">
<path fill="#fc8a7b" opacity="1.00" d=" M 627.58 360.66 C 631.57 359.50 635.77 359.85 639.87 360.01 C 639.54 363.25 639.24 366.49 638.94 369.73 C 637.67 369.94 636.40 370.17 635.13 370.39 C 637.36 372.01 639.53 373.92 640.14 376.74 C 641.08 379.36 641.65 382.25 643.46 384.45 C 644.88 385.87 646.83 386.54 648.62 387.40 C 645.26 391.91 645.42 397.71 645.81 403.05 C 638.94 405.77 631.29 406.19 624.42 403.26 C 623.80 403.79 622.56 404.84 621.94 405.36 C 623.01 406.10 623.84 407.42 625.23 407.59 C 633.46 408.42 641.73 406.92 649.56 404.41 C 651.49 397.62 653.05 390.66 656.31 384.34 C 658.96 384.33 661.60 384.52 664.23 384.86 C 666.54 385.70 668.76 386.76 670.98 387.82 C 668.04 399.26 660.12 408.99 659.20 420.99 C 656.15 420.79 653.09 420.64 650.09 420.06 C 650.68 417.46 651.60 414.85 651.49 412.16 C 651.10 409.92 649.83 407.97 648.85 405.97 C 646.40 409.80 645.98 414.37 644.96 418.68 C 644.08 421.36 643.47 424.12 643.61 426.95 C 643.89 433.19 638.40 438.80 632.43 439.80 C 631.81 436.85 631.15 433.91 630.73 430.93 C 630.45 428.60 630.34 426.26 630.25 423.92 C 634.67 421.23 638.70 417.95 642.21 414.15 C 637.92 415.42 633.63 416.77 629.20 417.43 C 622.36 417.38 614.35 415.79 610.68 409.34 C 606.64 401.87 608.24 392.88 610.02 384.98 C 611.67 379.32 612.85 373.19 616.57 368.45 C 619.30 367.37 622.32 367.58 625.21 367.36 C 623.15 366.65 621.10 365.93 619.06 365.21 C 621.73 363.41 624.44 361.55 627.58 360.66 M 616.97 374.55 C 616.39 376.81 616.29 379.14 616.93 381.40 C 617.83 380.49 618.79 379.64 619.56 378.62 C 620.15 376.75 617.91 375.80 616.97 374.55 M 633.62 378.61 C 633.41 380.65 633.23 382.70 633.04 384.75 C 633.81 384.75 635.36 384.74 636.14 384.74 C 636.50 382.25 635.61 380.11 633.62 378.61 M 615.91 387.76 C 617.03 388.65 618.15 389.55 619.28 390.46 C 621.05 387.95 621.71 384.95 622.01 381.96 C 619.77 383.66 617.76 385.64 615.91 387.76 M 618.34 397.00 C 618.03 396.86 617.41 396.59 617.11 396.46 C 617.47 398.45 617.78 400.45 618.07 402.46 C 621.68 400.85 625.48 399.70 629.19 398.36 L 628.11 398.37 C 628.36 397.34 628.63 396.32 628.91 395.30 C 625.37 395.79 621.83 396.29 618.34 397.00 Z" />
<path fill="#fc8a7b" opacity="1.00" d=" M 465.95 758.94 C 470.44 751.01 472.14 741.94 474.48 733.23 C 477.43 735.94 481.43 736.61 485.26 737.13 C 485.28 740.64 485.35 744.15 485.27 747.66 C 484.09 751.58 483.32 755.64 483.67 759.75 C 475.24 762.36 471.82 771.26 464.95 775.96 C 461.67 778.34 457.49 777.44 453.77 777.15 C 458.61 771.64 462.51 765.40 465.95 758.94 Z" />
<path fill="#fc8a7b" opacity="1.00" d=" M 576.92 787.31 C 581.69 785.82 586.46 784.36 591.24 782.91 C 591.46 784.64 591.69 786.37 591.92 788.12 C 592.64 793.61 593.32 799.13 594.77 804.48 C 586.92 808.93 585.79 818.76 579.91 824.92 C 577.44 827.79 573.43 827.74 570.00 828.27 C 570.07 827.83 570.23 826.94 570.31 826.50 C 574.02 820.04 576.24 812.88 577.47 805.56 C 577.63 804.70 577.79 803.84 577.97 803.00 C 579.50 801.23 579.68 798.82 578.37 796.89 C 577.98 793.67 577.60 790.46 576.92 787.31 Z" />
</g>
<g id="#bc7a78ff">
<path fill="#bc7a78" opacity="1.00" d=" M 640.28 364.48 C 641.30 367.06 641.93 369.77 642.18 372.54 C 638.56 371.62 640.40 367.13 640.28 364.48 Z" />
</g>
<g id="#e98c81ff">
<path fill="#e98c81" opacity="1.00" d=" M 640.14 376.74 C 640.99 376.22 641.85 375.70 642.72 375.19 C 644.56 379.32 646.61 383.35 648.62 387.40 C 646.83 386.54 644.88 385.87 643.46 384.45 C 641.65 382.25 641.08 379.36 640.14 376.74 Z" />
</g>
<g id="#f75d58ff">
<path fill="#f75d58" opacity="1.00" d=" M 615.91 387.76 C 617.76 385.64 619.77 383.66 622.01 381.96 C 621.71 384.95 621.05 387.95 619.28 390.46 C 618.15 389.55 617.03 388.65 615.91 387.76 Z" />
</g>
<g id="#1a2d35ff">
<path fill="#1a2d35" opacity="1.00" d=" M 329.82 388.03 C 330.29 384.52 333.83 383.14 336.98 383.36 C 360.00 383.36 383.03 383.40 406.05 383.34 C 408.69 383.34 411.33 383.33 413.98 383.34 C 426.65 383.36 439.32 383.43 452.00 383.31 C 455.65 383.38 459.45 382.94 462.99 384.08 C 466.26 385.23 467.67 388.76 467.89 391.97 C 469.73 411.65 471.54 431.32 473.37 451.00 C 473.95 459.15 475.47 467.30 474.48 475.49 C 472.40 476.15 470.32 476.81 468.19 477.28 C 466.83 451.97 463.59 426.80 461.56 401.54 C 461.04 397.05 460.87 391.11 456.04 389.02 C 450.89 387.30 445.33 388.22 440.00 388.09 C 403.27 388.08 366.54 388.19 329.82 388.03 Z" />
<path fill="#1a2d35" opacity="1.00" d=" M 582.46 634.59 C 588.89 633.67 595.40 634.79 601.86 634.97 C 602.01 637.93 602.14 640.90 602.33 643.87 C 594.40 643.60 586.46 643.46 578.55 644.07 C 578.30 640.64 578.71 635.95 582.46 634.59 Z" />
</g>
<g id="#07499eff">
<path fill="#07499e" opacity="1.00" d=" M 648.62 387.40 C 650.75 386.03 653.07 384.88 655.58 384.39 L 656.31 384.34 C 653.05 390.66 651.49 397.62 649.56 404.41 C 641.73 406.92 633.46 408.42 625.23 407.59 C 623.84 407.42 623.01 406.10 621.94 405.36 C 622.56 404.84 623.80 403.79 624.42 403.26 C 631.29 406.19 638.94 405.77 645.81 403.05 C 645.42 397.71 645.26 391.91 648.62 387.40 Z" />
</g>
<g id="#0b181eff">
<path fill="#0b181e" opacity="1.00" d=" M 329.01 388.02 L 329.82 388.03 C 366.54 388.19 403.27 388.08 440.00 388.09 C 445.33 388.22 450.89 387.30 456.04 389.02 C 460.87 391.11 461.04 397.05 461.56 401.54 C 463.59 426.80 466.83 451.97 468.19 477.28 C 446.79 477.38 425.37 477.53 403.97 477.17 C 404.80 464.35 407.14 451.65 406.94 438.78 C 407.47 435.47 407.88 432.15 408.21 428.83 C 399.81 428.31 391.39 428.57 382.99 428.88 C 380.37 445.08 379.68 461.53 377.11 477.74 C 370.79 477.25 364.45 477.43 358.12 477.48 C 352.74 477.33 347.26 478.03 341.96 476.92 C 337.64 475.82 336.39 471.01 336.14 467.13 C 333.96 440.74 331.23 414.40 329.01 388.02 Z" />
<path fill="#0b181e" opacity="1.00" d=" M 617.11 396.46 C 617.41 396.59 618.03 396.86 618.34 397.00 C 621.35 398.59 624.81 398.40 628.11 398.37 L 629.19 398.36 C 625.48 399.70 621.68 400.85 618.07 402.46 C 617.78 400.45 617.47 398.45 617.11 396.46 Z" />
</g>
<g id="#e9e9e9ff">
<path fill="#e9e9e9" opacity="1.00" d=" M 670.19 418.10 C 672.19 413.92 672.88 409.28 673.53 404.73 C 673.68 405.49 673.98 406.99 674.13 407.75 C 682.26 408.30 690.42 407.57 698.55 408.32 C 698.87 411.94 699.21 415.55 699.59 419.16 C 702.50 420.23 707.86 419.81 707.87 424.07 C 708.31 427.36 708.16 430.69 708.13 434.01 C 707.89 443.28 708.32 452.56 707.89 461.83 C 702.16 462.19 696.38 462.13 690.72 461.09 C 692.24 453.57 690.94 442.89 682.27 440.47 C 674.53 437.77 666.50 436.04 658.59 433.95 C 658.65 433.17 658.77 431.61 658.83 430.83 C 658.90 430.16 659.03 428.81 659.09 428.13 C 660.39 427.17 661.70 426.20 663.01 425.25 C 665.73 423.25 668.71 421.26 670.19 418.10 Z" />
</g>
<g id="#1d2e34ff">
<path fill="#1d2e34" opacity="1.00" d=" M 644.96 418.68 C 645.98 414.37 646.40 409.80 648.85 405.97 C 649.83 407.97 651.10 409.92 651.49 412.16 C 651.60 414.85 650.68 417.46 650.09 420.06 C 648.36 419.65 646.65 419.16 644.96 418.68 Z" />
</g>
<g id="#d06e63ff">
<path fill="#d06e63" opacity="1.00" d=" M 629.20 417.43 C 633.63 416.77 637.92 415.42 642.21 414.15 C 638.70 417.95 634.67 421.23 630.25 423.92 C 629.68 423.80 628.52 423.54 627.95 423.42 C 628.38 423.27 629.23 422.99 629.66 422.84 C 629.56 421.03 629.38 419.22 629.20 417.43 Z" />
</g>
<g id="#057bf9ff">
<path fill="#057bf9" opacity="1.00" d=" M 643.61 426.95 C 643.47 424.12 644.08 421.36 644.96 418.68 C 646.65 419.16 648.36 419.65 650.09 420.06 C 653.09 420.64 656.15 420.79 659.20 420.99 C 660.47 422.41 661.73 423.82 663.01 425.25 C 661.70 426.20 660.39 427.17 659.09 428.13 C 654.03 426.89 648.80 426.29 643.61 426.95 Z" />
</g>
<g id="#34454cff">
<path fill="#34454c" opacity="1.00" d=" M 382.99 428.88 C 391.39 428.57 399.81 428.31 408.21 428.83 C 407.88 432.15 407.47 435.47 406.94 438.78 C 403.91 446.52 402.73 454.77 400.79 462.81 C 397.61 476.67 394.34 490.50 391.45 504.42 C 390.74 506.88 390.48 509.77 388.61 511.67 C 384.20 512.80 379.60 512.01 375.13 511.81 C 374.86 508.46 374.54 505.11 374.48 501.75 C 374.87 493.71 376.02 485.71 377.11 477.74 C 379.68 461.53 380.37 445.08 382.99 428.88 Z" />
</g>
<g id="#017dfeff">
<path fill="#017dfe" opacity="1.00" d=" M 600.38 428.87 C 607.07 429.82 613.65 431.50 620.36 432.38 C 623.89 432.95 627.40 432.06 630.73 430.93 C 631.15 433.91 631.81 436.85 632.43 439.80 C 630.69 443.19 628.96 446.58 627.11 449.91 C 625.77 448.24 624.44 446.58 623.10 444.93 C 622.76 449.19 622.90 453.53 624.40 457.59 C 626.45 455.62 628.49 453.63 630.54 451.65 C 631.71 461.21 629.10 470.77 630.53 480.33 C 632.97 470.82 632.88 460.89 635.23 451.35 C 635.95 451.26 637.40 451.08 638.13 450.99 C 638.26 460.75 635.49 470.27 635.79 480.04 C 635.95 486.89 635.22 494.63 639.55 500.45 C 642.63 504.58 648.42 504.34 652.81 502.83 C 664.65 498.90 673.86 489.94 681.86 480.72 C 681.62 490.87 680.11 500.93 679.21 511.03 C 678.54 518.23 677.84 525.42 676.80 532.57 C 670.42 532.70 664.05 533.17 657.69 533.60 C 656.99 533.64 655.59 533.71 654.88 533.75 C 644.01 534.17 633.12 534.40 622.27 535.29 C 622.66 532.87 623.05 530.45 623.27 528.01 C 623.31 526.03 623.26 524.06 623.21 522.10 C 626.58 522.04 630.07 522.36 633.32 521.28 C 636.64 519.67 635.43 513.63 631.62 513.56 C 622.84 512.60 613.98 513.85 605.18 513.02 C 604.84 511.93 604.52 510.86 604.22 509.78 C 600.69 493.77 598.44 477.51 597.29 461.15 C 597.17 454.99 597.40 448.81 597.98 442.67 C 598.75 438.06 599.77 433.50 600.38 428.87 M 610.03 466.67 C 609.97 468.12 609.95 469.58 609.98 471.04 C 608.57 471.33 607.16 471.64 605.77 471.95 C 605.55 476.32 605.52 480.70 605.75 485.07 C 605.73 486.45 605.70 487.84 605.69 489.24 C 609.26 489.85 612.90 489.90 616.50 489.51 C 616.96 483.72 616.94 477.91 616.68 472.12 C 615.22 471.75 613.76 471.37 612.32 470.99 C 611.95 469.33 612.04 467.20 610.03 466.67 Z" />
</g>
<g id="#027cfdff">
<path fill="#027cfd" opacity="1.00" d=" M 656.29 461.51 C 655.74 451.21 657.79 441.03 658.83 430.83 C 658.77 431.61 658.65 433.17 658.59 433.95 C 666.50 436.04 674.53 437.77 682.27 440.47 C 678.32 443.05 674.43 445.75 670.89 448.88 C 665.96 453.04 662.17 458.55 656.29 461.51 Z" />
</g>
<g id="#014da9ff">
<path fill="#014da9" opacity="1.00" d=" M 577.42 456.52 C 581.68 449.02 589.91 444.83 597.98 442.67 C 597.40 448.81 597.17 454.99 597.29 461.15 C 590.54 460.19 583.94 458.44 577.42 456.52 Z" />
</g>
<g id="#e4e5e5ff">
</g>
<g id="#cbcbcbff">
<path fill="#cbcbcb" opacity="1.00" d=" M 282.00 467.09 C 292.63 467.06 303.27 466.83 313.90 467.09 C 314.00 469.68 314.10 472.28 314.20 474.89 C 316.83 475.42 319.45 475.97 322.08 476.54 C 319.57 476.76 317.07 476.98 314.57 477.19 C 314.12 478.60 313.68 480.02 313.24 481.44 C 310.59 482.02 307.94 482.60 305.29 483.19 C 305.20 488.03 305.16 492.88 305.20 497.73 C 308.70 498.01 312.34 497.87 315.67 499.12 C 316.33 501.47 316.40 503.94 316.63 506.37 C 319.30 506.74 321.97 507.09 324.63 507.54 C 321.82 507.77 319.00 507.93 316.19 508.09 C 316.05 509.75 315.91 511.42 315.77 513.09 C 305.16 513.22 294.55 513.06 283.93 513.09 C 283.78 508.14 283.73 503.18 283.72 498.22 C 280.19 498.12 276.65 498.02 273.12 497.92 C 273.02 492.92 273.00 487.91 273.09 482.90 C 275.97 482.78 278.85 482.68 281.73 482.60 C 281.87 477.43 281.93 472.26 282.00 467.09 Z" />
</g>
<g id="#e3e3e3ff">
<path fill="#e3e3e3" opacity="1.00" d=" M 313.90 467.09 C 321.32 467.04 328.73 466.89 336.14 467.13 C 336.39 471.01 337.64 475.82 341.96 476.92 C 347.26 478.03 352.74 477.33 358.12 477.48 C 357.91 478.92 357.70 480.38 357.50 481.84 C 354.76 482.29 352.03 482.76 349.30 483.22 C 348.97 488.04 348.93 492.88 349.14 497.72 C 352.24 497.95 355.33 498.21 358.43 498.53 C 359.28 501.25 360.36 503.90 361.69 506.44 C 360.10 506.99 358.52 507.52 356.94 508.07 C 356.47 509.63 356.01 511.19 355.56 512.76 C 342.32 513.62 329.03 512.94 315.77 513.09 C 315.91 511.42 316.05 509.75 316.19 508.09 C 319.00 507.93 321.82 507.77 324.63 507.54 C 321.97 507.09 319.30 506.74 316.63 506.37 C 316.40 503.94 316.33 501.47 315.67 499.12 C 312.34 497.87 308.70 498.01 305.20 497.73 C 305.16 492.88 305.20 488.03 305.29 483.19 C 307.94 482.60 310.59 482.02 313.24 481.44 C 313.68 480.02 314.12 478.60 314.57 477.19 C 317.07 476.98 319.57 476.76 322.08 476.54 C 319.45 475.97 316.83 475.42 314.20 474.89 C 314.10 472.28 314.00 469.68 313.90 467.09 Z" />
</g>
<g id="#183a55ff">
<path fill="#183a55" opacity="1.00" d=" M 610.03 466.67 C 612.04 467.20 611.95 469.33 612.32 470.99 C 612.41 471.40 612.58 472.24 612.67 472.65 C 611.81 473.48 610.95 474.31 610.10 475.14 C 610.05 473.77 610.01 472.40 609.98 471.04 C 609.95 469.58 609.97 468.12 610.03 466.67 Z" />
</g>
<g id="#89a3d1ff">
<path fill="#89a3d1" opacity="1.00" d=" M 605.77 471.95 C 607.16 471.64 608.57 471.33 609.98 471.04 C 610.01 472.40 610.05 473.77 610.10 475.14 C 610.95 474.31 611.81 473.48 612.67 472.65 C 613.28 472.89 614.49 473.36 615.10 473.59 C 615.36 477.36 615.37 481.14 615.19 484.92 C 612.04 484.96 608.90 485.02 605.75 485.07 C 605.52 480.70 605.55 476.32 605.77 471.95 Z" />
</g>
<g id="#aacafeff">
<path fill="#aacafe" opacity="1.00" d=" M 612.32 470.99 C 613.76 471.37 615.22 471.75 616.68 472.12 C 616.94 477.91 616.96 483.72 616.50 489.51 C 612.90 489.90 609.26 489.85 605.69 489.24 C 605.70 487.84 605.73 486.45 605.75 485.07 C 608.90 485.02 612.04 484.96 615.19 484.92 C 615.37 481.14 615.36 477.36 615.10 473.59 C 614.49 473.36 613.28 472.89 612.67 472.65 C 612.58 472.24 612.41 471.40 612.32 470.99 Z" />
</g>
<g id="#eaeaeaff">
</g>
<g id="#0361cfff">
<path fill="#0361cf" opacity="1.00" d=" M 543.17 496.96 C 545.09 494.96 546.49 492.30 549.00 490.95 C 559.58 489.65 569.31 494.95 579.30 497.52 C 577.67 501.32 577.20 505.45 577.21 509.55 C 578.60 509.53 579.99 509.52 581.39 509.51 C 582.22 506.68 583.07 503.86 583.84 501.02 C 587.84 502.72 592.09 503.94 595.82 506.23 C 598.21 507.66 598.52 510.70 599.39 513.10 C 590.52 513.61 581.64 513.26 572.76 513.28 C 572.77 508.05 574.06 502.84 577.41 498.72 C 566.02 497.55 554.46 499.25 543.17 496.96 Z" />
</g>
<g id="#027dfdff">
<path fill="#027dfd" opacity="1.00" d=" M 537.40 502.33 C 538.86 500.10 541.24 498.74 543.17 496.96 C 554.46 499.25 566.02 497.55 577.41 498.72 C 574.06 502.84 572.77 508.05 572.76 513.28 C 560.23 513.14 547.67 513.84 535.17 512.98 C 535.14 512.58 535.10 511.77 535.08 511.37 C 535.38 508.27 535.85 505.08 537.40 502.33 Z" />
</g>
<g id="#0b191eff">
<path fill="#0b191e" opacity="1.00" d=" M 434.77 505.88 C 453.65 505.58 472.54 505.84 491.42 505.72 C 491.38 508.23 491.30 510.73 491.19 513.24 C 474.87 513.30 458.55 513.32 442.23 513.22 C 441.98 511.63 441.74 510.05 441.50 508.47 C 439.26 507.59 437.04 506.67 434.77 505.88 Z" />
</g>
<g id="#1b2e36ff">
<path fill="#1b2e36" opacity="1.00" d=" M 491.42 505.72 L 492.37 505.77 C 504.40 507.15 516.43 508.41 528.49 509.47 C 529.09 510.71 529.69 511.96 530.30 513.21 C 517.27 513.43 504.23 513.26 491.19 513.24 C 491.30 510.73 491.38 508.23 491.42 505.72 Z" />
</g>
<g id="#aacbfeff">
<path fill="#aacbfe" opacity="1.00" d=" M 355.56 512.76 C 356.01 511.19 356.47 509.63 356.94 508.07 C 356.88 509.75 356.83 511.43 356.79 513.13 C 385.26 513.48 413.75 513.26 442.23 513.22 C 458.55 513.32 474.87 513.30 491.19 513.24 C 504.23 513.26 517.27 513.43 530.30 513.21 C 531.91 512.66 533.49 512.01 535.08 511.37 C 535.10 511.77 535.14 512.58 535.17 512.98 C 547.67 513.84 560.23 513.14 572.76 513.28 C 581.64 513.26 590.52 513.61 599.39 513.10 C 600.97 513.01 602.55 512.92 604.15 512.84 C 604.17 512.08 604.20 510.55 604.22 509.78 C 604.52 510.86 604.84 511.93 605.18 513.02 C 613.98 513.85 622.84 512.60 631.62 513.56 C 635.43 513.63 636.64 519.67 633.32 521.28 C 630.07 522.36 626.58 522.04 623.21 522.10 C 502.48 521.86 381.75 522.01 261.02 522.02 C 257.82 522.00 254.54 522.33 251.42 521.53 C 248.91 520.62 248.44 516.96 250.11 515.09 C 251.68 512.94 254.63 513.34 256.96 513.22 C 265.95 513.42 274.94 513.39 283.93 513.09 C 294.55 513.06 305.16 513.22 315.77 513.09 C 329.03 512.94 342.32 513.62 355.56 512.76 Z" />
</g>
<g id="#8aa4d1ff">
<path fill="#8aa4d1" opacity="1.00" d=" M 261.02 522.02 C 381.75 522.01 502.48 521.86 623.21 522.10 C 623.26 524.06 623.31 526.03 623.27 528.01 C 524.51 527.72 425.76 527.97 327.00 527.89 C 304.98 527.97 282.96 527.74 260.94 528.01 C 260.99 526.01 261.01 524.02 261.02 522.02 Z" />
</g>
<g id="#aacbffff">
<path fill="#aacbff" opacity="1.00" d=" M 260.94 528.01 C 282.96 527.74 304.98 527.97 327.00 527.89 C 425.76 527.97 524.51 527.72 623.27 528.01 C 623.05 530.45 622.66 532.87 622.27 535.29 C 620.73 535.43 619.21 535.59 617.69 535.77 C 617.94 539.21 618.19 542.65 618.39 546.10 C 621.13 546.24 623.87 546.37 626.62 546.49 C 631.60 546.77 636.56 546.08 641.47 545.29 C 646.04 544.57 650.65 544.21 655.27 543.88 C 655.17 540.50 655.01 537.12 654.88 533.75 C 655.59 533.71 656.99 533.64 657.69 533.60 C 658.18 536.82 658.64 540.05 659.06 543.29 C 665.98 542.89 673.52 543.85 679.62 539.83 C 679.62 541.51 679.45 543.28 680.18 544.86 C 689.64 562.91 697.75 582.38 698.91 602.96 C 699.64 613.54 696.22 624.32 688.97 632.14 C 684.19 634.67 679.22 637.05 673.80 637.74 C 661.96 639.64 650.12 637.04 638.33 636.13 C 633.06 633.74 627.38 632.60 621.83 631.12 C 619.11 630.54 617.18 628.42 616.00 626.02 C 615.45 607.20 613.88 588.41 613.00 569.59 C 622.36 569.36 631.11 573.43 640.42 573.68 C 633.65 566.71 623.57 565.04 615.24 560.68 C 613.76 559.87 612.87 558.38 612.00 557.02 C 611.64 553.81 612.05 550.57 612.78 547.45 C 616.30 544.36 614.26 539.55 614.16 535.58 C 607.68 535.10 601.16 534.91 594.73 536.03 C 591.51 535.54 588.26 535.11 585.00 535.11 C 564.10 535.47 543.20 535.05 522.30 535.16 C 514.95 535.21 507.61 535.43 500.27 535.51 C 494.85 535.46 489.44 535.27 484.03 535.26 C 453.02 535.22 422.01 535.27 391.00 535.21 C 385.58 535.23 380.17 535.47 374.76 535.50 C 346.49 535.12 318.21 535.47 289.94 535.31 C 284.55 535.24 279.16 535.40 273.78 535.61 L 273.09 535.62 C 269.84 535.61 266.52 535.62 263.39 534.69 C 260.63 533.70 261.23 530.30 260.94 528.01 Z" />
<path fill="#aacbff" opacity="1.00" d=" M 527.85 563.80 C 540.34 559.33 553.83 559.62 566.89 560.30 C 576.70 560.82 586.30 563.09 596.08 564.02 C 596.16 563.22 596.33 561.61 596.42 560.81 C 598.01 581.63 599.48 602.47 600.92 623.30 C 593.02 622.18 585.99 618.29 578.74 615.23 C 571.66 612.12 564.49 609.11 557.86 605.10 C 555.09 603.64 551.99 601.47 548.73 602.69 C 539.87 605.79 531.34 612.15 528.52 621.47 C 525.76 630.21 528.93 639.24 530.73 647.83 C 525.65 655.92 522.50 664.98 518.54 673.62 C 514.23 683.01 510.40 692.61 506.30 702.09 C 504.17 707.57 501.57 712.84 499.34 718.27 C 498.77 706.52 499.47 694.76 499.35 683.01 C 499.43 668.39 499.17 653.77 499.50 639.17 C 500.08 628.52 499.54 617.85 500.14 607.21 C 504.26 595.46 508.69 583.78 514.91 572.95 C 518.20 568.70 522.73 565.47 527.85 563.80 Z" />
</g>
<g id="#757b7fff">
<path fill="#757b7f" opacity="1.00" d=" M 273.78 535.61 C 279.16 535.40 284.55 535.24 289.94 535.31 C 289.70 537.63 289.48 539.95 289.29 542.27 C 284.18 542.22 279.07 542.09 273.96 541.95 C 273.90 539.83 273.83 537.71 273.78 535.61 Z" />
</g>
<g id="#626a6dff">
<path fill="#626a6d" opacity="1.00" d=" M 374.76 535.50 C 380.17 535.47 385.58 535.23 391.00 535.21 L 391.02 536.07 C 391.09 538.09 391.15 540.10 391.25 542.13 C 385.89 542.17 380.53 542.16 375.18 542.02 C 375.03 539.84 374.89 537.66 374.76 535.50 Z" />
</g>
<g id="#767b7fff">
<path fill="#767b7f" opacity="1.00" d=" M 484.03 535.26 C 489.44 535.27 494.85 535.46 500.27 535.51 C 500.51 549.69 500.19 563.88 500.14 578.06 C 495.06 578.22 489.97 578.16 484.89 578.00 C 484.39 569.27 484.96 560.51 484.27 551.78 C 484.08 546.27 484.02 540.76 484.03 535.26 Z" />
</g>
<g id="#f4f5f5ff">
</g>
<g id="#e8e8e9ff">
</g>
<g id="#767b80ff">
<path fill="#767b80" opacity="1.00" d=" M 594.73 536.03 C 601.16 534.91 607.68 535.10 614.16 535.58 C 613.35 535.74 611.73 536.06 610.93 536.22 C 611.20 538.19 611.48 540.17 611.82 542.15 C 606.26 542.13 600.70 542.08 595.14 542.12 C 594.99 540.09 594.86 538.06 594.73 536.03 Z" />
</g>
<g id="#fefeffff">
<path fill="#fefeff" opacity="1.00" d=" M 626.18 535.88 C 631.00 535.37 635.85 535.05 640.70 534.97 C 640.93 538.41 641.17 541.85 641.47 545.29 C 636.56 546.08 631.60 546.77 626.62 546.49 C 626.51 542.95 626.34 539.41 626.18 535.88 Z" />
</g>
<g id="#929a9dff">
<path fill="#929a9d" opacity="1.00" d=" M 273.09 535.62 L 273.78 535.61 C 273.83 537.71 273.90 539.83 273.96 541.95 C 279.07 542.09 284.18 542.22 289.29 542.27 C 282.83 632.86 276.24 723.44 269.83 814.04 C 269.36 820.76 268.92 827.49 268.11 834.18 C 264.09 834.32 260.06 834.32 256.04 834.19 C 256.21 827.79 256.60 821.40 257.10 815.02 C 260.18 766.38 262.47 717.70 265.73 669.07 C 266.83 642.67 268.93 616.33 270.23 589.95 C 271.09 571.83 272.89 553.76 273.09 535.62 Z" />
<path fill="#929a9d" opacity="1.00" d=" M 595.14 542.12 C 600.70 542.08 606.26 542.13 611.82 542.15 C 612.12 543.91 612.48 545.67 612.78 547.45 C 612.05 550.57 611.64 553.81 612.00 557.02 C 612.45 561.20 612.81 565.39 613.00 569.59 C 613.88 588.41 615.45 607.20 616.00 626.02 C 616.27 628.98 616.69 631.93 617.10 634.89 C 618.46 635.21 619.82 635.54 621.21 635.84 C 619.77 635.83 618.35 635.86 616.93 635.91 C 617.13 638.65 617.35 641.39 617.56 644.14 C 617.84 648.04 617.98 651.94 618.09 655.85 C 618.80 671.22 619.85 686.57 620.81 701.93 C 622.30 729.66 623.94 757.39 625.69 785.11 C 625.96 792.85 626.50 800.58 627.26 808.29 C 627.23 816.93 628.31 825.53 628.20 834.18 C 624.18 834.33 620.17 834.33 616.16 834.16 C 615.28 825.76 615.17 817.29 614.10 808.90 C 608.10 808.43 602.08 808.64 596.08 808.87 L 595.81 808.03 C 601.88 808.47 607.97 808.46 614.05 808.13 C 613.85 801.02 613.24 793.93 612.82 786.83 C 610.52 786.77 608.23 786.71 605.95 786.73 C 608.16 786.40 610.39 786.07 612.62 785.75 C 610.68 758.88 608.82 732.00 606.81 705.13 C 605.63 688.70 604.60 672.26 603.25 655.84 C 602.92 651.85 602.58 647.86 602.33 643.87 C 602.14 640.90 602.01 637.93 601.86 634.97 C 601.64 631.07 601.26 627.19 600.92 623.30 C 599.48 602.47 598.01 581.63 596.42 560.81 C 596.16 554.57 595.52 548.35 595.14 542.12 Z" />
<path fill="#929a9d" opacity="1.00" d=" M 484.27 551.78 C 484.96 560.51 484.39 569.27 484.89 578.00 C 489.97 578.16 495.06 578.22 500.14 578.06 C 500.16 587.78 500.26 597.50 500.14 607.21 C 499.54 617.85 500.08 628.52 499.50 639.17 C 499.17 653.77 499.43 668.39 499.35 683.01 C 499.47 694.76 498.77 706.52 499.34 718.27 C 500.54 726.52 498.56 734.73 498.95 743.00 C 499.13 765.33 498.40 787.67 498.70 810.00 C 498.61 817.99 498.65 825.98 498.67 833.97 C 494.48 834.30 490.28 834.38 486.09 834.21 C 485.78 823.06 486.19 811.91 485.76 800.77 C 485.44 783.07 486.05 765.35 485.27 747.66 C 485.35 744.15 485.28 740.64 485.26 737.13 C 485.26 735.09 485.29 733.06 485.30 731.03 C 485.33 727.08 485.02 723.14 484.92 719.19 C 485.50 704.40 484.99 689.58 484.78 674.78 C 485.28 653.52 484.37 632.25 484.66 610.99 C 484.95 591.25 483.98 571.52 484.27 551.78 Z" />
</g>
<g id="#f4f4f4ff">
</g>
<g id="#12242dff">
<path fill="#12242d" opacity="1.00" d=" M 610.93 536.22 C 611.73 536.06 613.35 535.74 614.16 535.58 C 614.26 539.55 616.30 544.36 612.78 547.45 C 612.48 545.67 612.12 543.91 611.82 542.15 C 611.48 540.17 611.20 538.19 610.93 536.22 Z" />
</g>
<g id="#7d848bff">
<path fill="#7d848b" opacity="1.00" d=" M 375.18 542.02 C 380.53 542.16 385.89 542.17 391.25 542.13 C 392.94 563.99 393.58 585.92 395.25 607.79 C 397.48 650.38 400.39 692.93 402.64 735.51 C 404.52 760.34 405.33 785.24 407.11 810.07 C 407.72 818.09 408.17 826.13 408.22 834.18 C 404.19 834.32 400.16 834.33 396.14 834.19 C 395.47 826.41 395.02 818.62 394.35 810.85 C 388.20 721.23 381.33 631.65 375.18 542.02 Z" />
</g>
<g id="#667177ff">
<path fill="#667177" opacity="1.00" d=" M 711.97 542.82 C 721.54 542.96 731.12 542.68 740.69 542.96 C 741.61 565.36 739.74 587.92 734.85 609.81 C 733.18 617.79 730.20 625.40 728.11 633.27 C 718.23 631.10 708.08 632.33 698.08 632.07 C 701.26 624.78 703.70 617.17 705.35 609.39 C 710.05 587.53 711.49 565.12 711.97 542.82 Z" />
<path fill="#667177" opacity="1.00" d=" M 641.87 655.73 C 651.96 655.74 662.05 655.37 672.14 655.87 C 672.64 667.24 672.22 678.63 672.35 690.00 C 672.18 697.99 672.68 706.00 672.13 713.99 C 671.30 715.64 670.14 717.09 669.06 718.59 C 661.32 719.56 653.52 719.26 645.75 719.14 C 644.23 716.98 642.37 714.88 641.87 712.22 C 641.59 693.39 641.61 674.55 641.87 655.73 Z" />
</g>
<g id="#9bb9eaff">
<path fill="#9bb9ea" opacity="1.00" d=" M 612.00 557.02 C 612.87 558.38 613.76 559.87 615.24 560.68 C 623.57 565.04 633.65 566.71 640.42 573.68 C 631.11 573.43 622.36 569.36 613.00 569.59 C 612.81 565.39 612.45 561.20 612.00 557.02 Z" />
</g>
<g id="#9ab6e8ff">
<path fill="#9ab6e8" opacity="1.00" d=" M 548.73 602.69 C 551.99 601.47 555.09 603.64 557.86 605.10 C 564.49 609.11 571.66 612.12 578.74 615.23 C 585.99 618.29 593.02 622.18 600.92 623.30 C 601.26 627.19 601.64 631.07 601.86 634.97 C 595.40 634.79 588.89 633.67 582.46 634.59 C 578.71 635.95 578.30 640.64 578.55 644.07 C 578.92 648.02 579.51 651.96 579.93 655.91 C 581.53 671.29 583.40 686.64 585.05 702.02 C 587.40 724.36 589.59 746.71 591.82 769.07 C 584.20 769.88 576.31 769.92 569.08 772.75 C 569.02 769.57 568.95 766.33 567.77 763.33 C 560.39 743.04 553.73 722.50 546.88 702.03 C 541.20 684.05 535.63 666.03 530.73 647.83 C 528.93 639.24 525.76 630.21 528.52 621.47 C 531.34 612.15 539.87 605.79 548.73 602.69 Z" />
</g>
<g id="#9cb7e9ff">
<path fill="#9cb7e9" opacity="1.00" d=" M 616.00 626.02 C 617.18 628.42 619.11 630.54 621.83 631.12 C 627.38 632.60 633.06 633.74 638.33 636.13 C 632.62 636.29 626.90 636.29 621.21 635.84 C 619.82 635.54 618.46 635.21 617.10 634.89 C 616.69 631.93 616.27 628.98 616.00 626.02 Z" />
</g>
<g id="#1a2e35ff">
<path fill="#1a2e35" opacity="1.00" d=" M 673.80 637.74 C 679.22 637.05 684.19 634.67 688.97 632.14 C 692.00 632.00 695.04 632.06 698.08 632.07 C 708.08 632.33 718.23 631.10 728.11 633.27 C 730.03 636.15 731.60 639.25 732.79 642.51 C 727.04 644.48 720.93 643.61 715.00 643.68 C 690.67 643.70 666.33 643.68 642.00 643.69 C 633.85 643.72 625.68 643.41 617.56 644.14 C 617.35 641.39 617.13 638.65 616.93 635.91 C 618.35 635.86 619.77 635.83 621.21 635.84 C 626.90 636.29 632.62 636.29 638.33 636.13 C 650.12 637.04 661.96 639.64 673.80 637.74 Z" />
</g>
<g id="#a8aeb1ff">
<path fill="#a8aeb1" opacity="1.00" d=" M 732.79 642.51 C 734.69 643.70 736.61 644.87 738.55 646.03 C 738.53 648.37 738.86 650.79 738.19 653.08 C 737.36 655.67 734.24 655.53 732.05 655.73 C 712.36 655.77 692.65 655.38 672.97 655.86 C 672.57 671.22 672.87 686.59 672.95 701.95 C 672.93 705.97 672.93 710.03 672.13 713.99 C 672.68 706.00 672.18 697.99 672.35 690.00 C 672.22 678.63 672.64 667.24 672.14 655.87 C 662.05 655.37 651.96 655.74 641.87 655.73 C 633.94 655.69 626.01 655.51 618.09 655.85 C 617.98 651.94 617.84 648.04 617.56 644.14 C 625.68 643.41 633.85 643.72 642.00 643.69 C 666.33 643.68 690.67 643.70 715.00 643.68 C 720.93 643.61 727.04 644.48 732.79 642.51 Z" />
<path fill="#a8aeb1" opacity="1.00" d=" M 578.55 644.07 C 586.46 643.46 594.40 643.60 602.33 643.87 C 602.58 647.86 602.92 651.85 603.25 655.84 C 595.47 655.58 587.69 655.51 579.93 655.91 C 579.51 651.96 578.92 648.02 578.55 644.07 Z" />
</g>
<g id="#e8e8e8ff">
</g>
<g id="#abcbfbff">
<path fill="#abcbfb" opacity="1.00" d=" M 479.17 702.18 C 480.72 692.99 482.57 683.84 484.78 674.78 C 484.99 689.58 485.50 704.40 484.92 719.19 C 481.74 718.36 478.55 717.53 475.29 717.08 C 474.84 718.07 474.41 719.08 474.01 720.11 C 474.68 717.92 475.74 715.90 476.73 713.85 C 478.47 710.21 478.54 706.09 479.17 702.18 Z" />
</g>
<g id="#067cf8ff">
<path fill="#067cf8" opacity="1.00" d=" M 833.53 675.28 C 834.41 675.75 835.31 676.20 836.22 676.68 C 836.33 677.95 836.43 679.24 836.59 680.53 C 832.01 686.40 830.43 693.82 828.87 700.93 C 826.90 709.86 825.70 718.95 824.82 728.06 C 824.12 735.71 823.12 743.37 823.34 751.08 C 824.80 740.39 827.17 729.42 833.36 720.37 C 835.98 716.47 839.59 713.35 843.67 711.04 C 843.41 713.24 842.95 715.42 842.47 717.59 C 838.35 718.17 836.36 722.23 834.41 725.42 C 828.19 737.17 826.50 750.70 826.05 763.81 C 823.65 763.85 821.26 763.87 818.87 763.90 C 818.77 762.21 818.66 760.52 818.64 758.85 C 819.62 743.61 820.55 727.84 815.96 713.06 C 814.14 706.93 809.83 700.79 802.91 700.35 C 801.82 699.20 800.69 698.09 799.59 696.98 C 803.63 696.83 808.19 696.70 811.42 699.61 C 817.86 704.85 819.73 713.39 821.68 721.05 C 823.79 710.73 824.76 700.14 828.03 690.08 C 829.58 685.04 832.60 680.53 833.53 675.28 Z" />
</g>
<g id="#0162d1ff">
<path fill="#0162d1" opacity="1.00" d=" M 843.39 706.16 C 848.81 702.87 855.48 703.51 861.44 704.67 C 869.12 706.25 876.48 710.48 880.75 717.20 C 884.12 722.45 885.44 728.78 885.24 734.97 C 873.48 736.23 861.18 737.81 849.67 734.29 C 842.74 732.34 840.54 723.82 842.47 717.59 C 842.95 715.42 843.41 713.24 843.67 711.04 C 843.73 709.41 843.52 707.78 843.39 706.16 Z" />
</g>
<g id="#037cfbff">
<path fill="#037cfb" opacity="1.00" d=" M 475.29 717.08 C 478.55 717.53 481.74 718.36 484.92 719.19 C 485.02 723.14 485.33 727.08 485.30 731.03 C 482.06 730.12 478.82 729.25 475.54 728.54 C 474.25 725.94 473.18 723.02 474.01 720.11 C 474.41 719.08 474.84 718.07 475.29 717.08 Z" />
</g>
<g id="#4c5b60ff">
<path fill="#4c5b60" opacity="1.00" d=" M 645.75 719.14 C 653.52 719.26 661.32 719.56 669.06 718.59 C 668.22 727.70 668.79 736.86 668.64 746.00 C 668.77 758.29 668.38 770.58 668.84 782.86 C 686.56 784.75 704.28 786.54 722.04 788.05 C 726.14 788.46 730.80 788.95 733.67 792.31 C 736.81 795.62 736.24 800.50 736.33 804.69 C 730.30 803.64 723.81 804.39 719.12 808.65 C 688.51 808.01 657.88 808.71 627.26 808.29 C 626.50 800.58 625.96 792.85 625.69 785.11 C 632.32 784.17 639.01 783.69 645.66 782.86 C 645.81 761.62 645.63 740.38 645.75 719.14 Z" />
<path fill="#4c5b60" opacity="1.00" d=" M 591.92 788.12 C 596.60 787.78 601.28 787.29 605.95 786.73 C 608.23 786.71 610.52 786.77 612.82 786.83 C 613.24 793.93 613.85 801.02 614.05 808.13 C 607.97 808.46 601.88 808.47 595.81 808.03 C 595.44 806.84 595.09 805.66 594.77 804.48 C 593.32 799.13 592.64 793.61 591.92 788.12 Z" />
</g>
<g id="#cb6f64ff">
<path fill="#cb6f64" opacity="1.00" d=" M 475.54 728.54 C 478.82 729.25 482.06 730.12 485.30 731.03 C 485.29 733.06 485.26 735.09 485.26 737.13 C 481.43 736.61 477.43 735.94 474.48 733.23 C 474.84 731.66 475.20 730.10 475.54 728.54 Z" />
</g>
<g id="#e4e4e4ff">
</g>
<g id="#4897feff">
<path fill="#4897fe" opacity="1.00" d=" M 817.84 763.60 C 818.11 762.01 818.40 760.43 818.64 758.85 C 818.66 760.52 818.77 762.21 818.87 763.90 C 821.26 763.87 823.65 763.85 826.05 763.81 C 837.07 763.59 848.11 763.47 859.13 763.83 C 859.46 768.48 859.44 773.15 859.00 777.80 C 857.70 777.81 856.41 777.83 855.13 777.86 C 832.14 777.86 809.14 777.84 786.15 777.89 C 785.00 777.59 783.86 777.29 782.73 776.98 C 782.52 772.59 782.48 768.20 782.72 763.83 C 794.42 763.33 806.13 763.89 817.84 763.60 Z" />
</g>
<g id="#047cf9ff">
<path fill="#047cf9" opacity="1.00" d=" M 464.95 775.96 C 471.82 771.26 475.24 762.36 483.67 759.75 C 483.88 763.72 483.58 767.72 482.65 771.59 C 481.33 776.97 480.54 782.67 477.39 787.37 C 477.64 782.03 479.03 776.85 479.63 771.56 C 477.23 773.56 475.17 775.93 473.57 778.61 C 471.74 781.77 469.04 785.11 464.99 784.94 C 458.17 784.80 450.99 783.37 445.44 779.16 C 448.10 778.08 450.86 777.09 453.77 777.15 C 457.49 777.44 461.67 778.34 464.95 775.96 Z" />
<path fill="#047cf9" opacity="1.00" d=" M 579.91 824.92 C 585.79 818.76 586.92 808.93 594.77 804.48 C 595.09 805.66 595.44 806.84 595.81 808.03 L 596.08 808.87 C 596.21 809.30 596.48 810.18 596.62 810.61 C 596.32 816.23 596.38 821.85 596.70 827.48 C 596.44 828.80 596.19 830.13 595.94 831.48 C 595.48 831.39 594.57 831.23 594.11 831.14 C 594.49 826.40 594.36 821.59 593.09 816.98 C 590.91 820.49 589.66 824.45 588.08 828.24 C 586.94 830.99 584.32 832.66 581.91 834.19 C 575.37 834.41 568.73 834.51 562.34 832.86 C 564.40 830.63 566.82 828.52 570.00 828.27 C 573.43 827.74 577.44 827.79 579.91 824.92 Z" />
</g>
<g id="#95befeff">
<path fill="#95befe" opacity="1.00" d=" M 786.15 777.89 C 809.14 777.84 832.14 777.86 855.13 777.86 C 854.51 790.86 852.77 803.78 851.60 816.75 C 851.05 822.47 850.51 828.20 849.84 833.92 C 839.90 834.44 829.95 834.03 820.00 834.15 C 810.66 834.04 801.32 834.43 791.99 833.93 C 791.16 828.30 790.52 822.65 790.05 816.99 C 788.81 803.95 787.50 790.92 786.15 777.89 Z" />
</g>
<g id="#cd6e63ff">
<path fill="#cd6e63" opacity="1.00" d=" M 575.59 782.47 C 580.58 781.10 585.73 780.55 590.87 780.03 C 590.96 780.75 591.15 782.19 591.24 782.91 C 586.46 784.36 581.69 785.82 576.92 787.31 C 576.52 785.67 576.06 784.07 575.59 782.47 Z" />
</g>
<g id="#6f5c5aff">
<path fill="#6f5c5a" opacity="1.00" d=" M 578.37 796.89 C 579.68 798.82 579.50 801.23 577.97 803.00 C 577.55 800.95 577.65 798.84 578.37 796.89 Z" />
</g>
<g id="#1b2e34ff">
<path fill="#1b2e34" opacity="1.00" d=" M 571.87 809.73 C 573.64 808.21 575.55 806.88 577.47 805.56 C 576.24 812.88 574.02 820.04 570.31 826.50 C 568.58 820.92 568.45 814.71 571.87 809.73 Z" />
</g>
<g id="#162e3cff">
<path fill="#162e3c" opacity="1.00" d=" M 596.62 810.61 C 597.52 813.35 598.71 816.06 598.86 818.99 C 598.88 821.95 597.60 824.70 596.70 827.48 C 596.38 821.85 596.32 816.23 596.62 810.61 Z" />
</g>
<g id="#182f37ff">
<path fill="#182f37" opacity="1.00" d=" M 588.08 828.24 C 589.66 824.45 590.91 820.49 593.09 816.98 C 594.36 821.59 594.49 826.40 594.11 831.14 C 590.27 832.93 586.18 834.21 581.91 834.19 C 584.32 832.66 586.94 830.99 588.08 828.24 Z" />
</g>
</svg>
